<svg xmlns="http://www.w3.org/2000/svg" xmlns:xlink="http://www.w3.org/1999/xlink" width="980" height="796"><g transform="translate(-40 -4)"><path d="M80 85c0-2.76 2.24-5 5-5h250c2.76 0 5 2.24 5 5v58c0 2.76-2.24 5-5 5H85c-2.76 0-5-2.24-5-5z" stroke="#000" stroke-width="2" fill="#fff"/><use xlink:href="#a" transform="matrix(1,0,0,1,80,80) translate(29.18 37.775)"/><use xlink:href="#b" transform="matrix(1,0,0,1,80,80) translate(64.08 37.775)"/><use xlink:href="#c" transform="matrix(1,0,0,1,80,80) translate(92.03 37.775)"/><use xlink:href="#d" transform="matrix(1,0,0,1,80,80) translate(117.98 37.775)"/><use xlink:href="#e" transform="matrix(1,0,0,1,80,80) translate(175.93 37.775)"/><path d="M80 165c0-2.76 2.24-5 5-5h250c2.76 0 5 2.24 5 5v58c0 2.76-2.24 5-5 5H85c-2.76 0-5-2.24-5-5z" stroke="#000" stroke-width="2" fill="#fff"/><use xlink:href="#f" transform="matrix(1,0,0,1,80,160) translate(14.654999999999982 37.775)"/><use xlink:href="#g" transform="matrix(1,0,0,1,80,160) translate(108.505 37.775)"/><path d="M400 445c0-2.76 2.24-5 5-5h250c2.76 0 5 2.24 5 5v98c0 2.76-2.24 5-5 5H405c-2.76 0-5-2.24-5-5z" stroke="#000" stroke-width="2" fill="#fff"/><use xlink:href="#h" transform="matrix(1,0,0,1,400,440) translate(19.62999999999999 24.525)"/><use xlink:href="#i" transform="matrix(1,0,0,1,400,440) translate(53.62999999999999 24.525)"/><use xlink:href="#j" transform="matrix(1,0,0,1,400,440) translate(109.52999999999999 24.525)"/><use xlink:href="#k" transform="matrix(1,0,0,1,400,440) translate(158.48000000000002 24.525)"/><use xlink:href="#l" transform="matrix(1,0,0,1,400,440) translate(44.054999999999986 46.125)"/><use xlink:href="#m" transform="matrix(1,0,0,1,400,440) translate(104.005 46.125)"/><use xlink:href="#n" transform="matrix(1,0,0,1,400,440) translate(185.955 46.125)"/><use xlink:href="#o" transform="matrix(1,0,0,1,400,440) translate(8.579999999999993 67.72500000000001)"/><use xlink:href="#p" transform="matrix(1,0,0,1,400,440) translate(94.53 67.72500000000001)"/><use xlink:href="#q" transform="matrix(1,0,0,1,400,440) translate(128.53 67.72500000000001)"/><use xlink:href="#r" transform="matrix(1,0,0,1,400,440) translate(193.43 67.72500000000001)"/><use xlink:href="#s" transform="matrix(1,0,0,1,400,440) translate(64.00500000000001 89.32500000000002)"/><use xlink:href="#t" transform="matrix(1,0,0,1,400,440) translate(84.005 89.32500000000002)"/><use xlink:href="#u" transform="matrix(1,0,0,1,400,440) translate(128.005 89.32500000000002)"/><path d="M80 325c0-2.76 2.24-5 5-5h250c2.76 0 5 2.24 5 5v58c0 2.76-2.24 5-5 5H85c-2.76 0-5-2.24-5-5z" stroke="#000" stroke-width="2" fill="#fff"/><use xlink:href="#v" transform="matrix(1,0,0,1,80,320) translate(18.604999999999997 37.775)"/><use xlink:href="#p" transform="matrix(1,0,0,1,80,320) translate(107.555 37.775)"/><use xlink:href="#i" transform="matrix(1,0,0,1,80,320) translate(141.555 37.775)"/><use xlink:href="#w" transform="matrix(1,0,0,1,80,320) translate(197.455 37.775)"/><path d="M80 245c0-2.76 2.24-5 5-5h250c2.76 0 5 2.24 5 5v58c0 2.76-2.24 5-5 5H85c-2.76 0-5-2.24-5-5z" stroke="#000" stroke-width="2" fill="#fff"/><use xlink:href="#x" transform="matrix(1,0,0,1,80,240) translate(61.054999999999986 37.775)"/><use xlink:href="#y" transform="matrix(1,0,0,1,80,240) translate(122.005 37.775)"/><path d="M80 405c0-2.76 2.24-5 5-5h250c2.76 0 5 2.24 5 5v58c0 2.76-2.24 5-5 5H85c-2.76 0-5-2.24-5-5z" stroke="#000" stroke-width="2" fill="#fff"/><use xlink:href="#z" transform="matrix(1,0,0,1,80,400) translate(40.054999999999986 37.775)"/><use xlink:href="#t" transform="matrix(1,0,0,1,80,400) translate(107.955 37.775)"/><use xlink:href="#u" transform="matrix(1,0,0,1,80,400) translate(151.95499999999998 37.775)"/><path d="M700 85c0-2.76 2.24-5 5-5h250c2.76 0 5 2.24 5 5v58c0 2.76-2.24 5-5 5H705c-2.76 0-5-2.24-5-5z" stroke="#000" stroke-width="2" fill="#fff"/><use xlink:href="#A" transform="matrix(1,0,0,1,700,80) translate(30.179999999999986 27.15)"/><use xlink:href="#B" transform="matrix(1,0,0,1,700,80) translate(99.98 27.15)"/><use xlink:href="#s" transform="matrix(1,0,0,1,700,80) translate(191.93 27.15)"/><use xlink:href="#C" transform="matrix(1,0,0,1,700,80) translate(211.93 27.15)"/><use xlink:href="#D" transform="matrix(1,0,0,1,700,80) translate(74.53 48.75)"/><use xlink:href="#E" transform="matrix(1,0,0,1,700,80) translate(131.48 48.75)"/><path d="M700 325c0-2.76 2.24-5 5-5h250c2.76 0 5 2.24 5 5v70c0 2.76-2.24 5-5 5H705c-2.76 0-5-2.24-5-5z" stroke="#000" stroke-width="2" fill="#fff"/><g><use xlink:href="#v" transform="matrix(1,0,0,1,700,320) translate(17.104999999999983 21.9)"/><use xlink:href="#F" transform="matrix(1,0,0,1,700,320) translate(106.05499999999999 21.9)"/><use xlink:href="#q" transform="matrix(1,0,0,1,700,320) translate(148.005 21.9)"/><use xlink:href="#n" transform="matrix(1,0,0,1,700,320) translate(212.90500000000003 21.9)"/><use xlink:href="#G" transform="matrix(1,0,0,1,700,320) translate(11.604999999999984 43.5)"/><use xlink:href="#H" transform="matrix(1,0,0,1,700,320) translate(102.55499999999999 43.5)"/><use xlink:href="#I" transform="matrix(1,0,0,1,700,320) translate(212.505 43.5)"/><use xlink:href="#y" transform="matrix(1,0,0,1,700,320) translate(91.53 65.10000000000001)"/></g><path d="M700 417c0-2.76 2.24-5 5-5h250c2.76 0 5 2.24 5 5v74c0 2.76-2.24 5-5 5H705c-2.76 0-5-2.24-5-5z" stroke="#000" stroke-width="2" fill="#fff"/><g><use xlink:href="#J" transform="matrix(1,0,0,1,700,412.00000000000006) translate(23.70499999999999 24.9)"/><use xlink:href="#K" transform="matrix(1,0,0,1,700,412.00000000000006) translate(111.555 24.9)"/><use xlink:href="#L" transform="matrix(1,0,0,1,700,412.00000000000006) translate(172.455 24.9)"/><use xlink:href="#q" transform="matrix(1,0,0,1,700,412.00000000000006) translate(11.154999999999996 46.5)"/><use xlink:href="#s" transform="matrix(1,0,0,1,700,412.00000000000006) translate(76.055 46.5)"/><use xlink:href="#M" transform="matrix(1,0,0,1,700,412.00000000000006) translate(96.055 46.5)"/><use xlink:href="#q" transform="matrix(1,0,0,1,700,412.00000000000006) translate(168.95499999999998 46.5)"/><use xlink:href="#N" transform="matrix(1,0,0,1,700,412.00000000000006) translate(233.85500000000002 46.5)"/><use xlink:href="#O" transform="matrix(1,0,0,1,700,412.00000000000006) translate(72.55499999999999 68.10000000000001)"/><use xlink:href="#P" transform="matrix(1,0,0,1,700,412.00000000000006) translate(148.505 68.10000000000001)"/></g><path d="M700 245c0-2.76 2.24-5 5-5h250c2.76 0 5 2.24 5 5v58c0 2.76-2.24 5-5 5H705c-2.76 0-5-2.24-5-5z" stroke="#000" stroke-width="2" fill="#fff"/><g><use xlink:href="#v" transform="matrix(1,0,0,1,700,240) translate(8.204999999999993 27.15)"/><use xlink:href="#Q" transform="matrix(1,0,0,1,700,240) translate(97.155 27.15)"/><use xlink:href="#R" transform="matrix(1,0,0,1,700,240) translate(191.905 27.15)"/><use xlink:href="#S" transform="matrix(1,0,0,1,700,240) translate(71.08 48.75)"/><use xlink:href="#y" transform="matrix(1,0,0,1,700,240) translate(111.97999999999999 48.75)"/></g><path d="M700 165c0-2.76 2.24-5 5-5h250c2.76 0 5 2.24 5 5v58c0 2.76-2.24 5-5 5H705c-2.76 0-5-2.24-5-5z" stroke="#000" stroke-width="2" fill="#fff"/><g><use xlink:href="#v" transform="matrix(1,0,0,1,700,160) translate(6.154999999999982 27.15)"/><use xlink:href="#T" transform="matrix(1,0,0,1,700,160) translate(95.10499999999999 27.15)"/><use xlink:href="#q" transform="matrix(1,0,0,1,700,160) translate(153.055 27.15)"/><use xlink:href="#I" transform="matrix(1,0,0,1,700,160) translate(217.955 27.15)"/><use xlink:href="#y" transform="matrix(1,0,0,1,700,160) translate(91.53 48.75)"/></g><path d="M700 513c0-2.76 2.24-5 5-5h250c2.76 0 5 2.24 5 5v62c0 2.76-2.24 5-5 5H705c-2.76 0-5-2.24-5-5z" stroke="#000" stroke-width="2" fill="#fff"/><g><use xlink:href="#U" transform="matrix(1,0,0,1,700,508) translate(10.630000000000004 27.9)"/><use xlink:href="#V" transform="matrix(1,0,0,1,700,508) translate(78.53000000000002 27.9)"/><use xlink:href="#W" transform="matrix(1,0,0,1,700,508) translate(140.43 27.9)"/><use xlink:href="#X" transform="matrix(1,0,0,1,700,508) translate(185.38 27.9)"/><use xlink:href="#Y" transform="matrix(1,0,0,1,700,508) translate(210.38 27.9)"/><use xlink:href="#Z" transform="matrix(1,0,0,1,700,508) translate(38.13 49.5)"/><use xlink:href="#c" transform="matrix(1,0,0,1,700,508) translate(88.13 49.5)"/><use xlink:href="#aa" transform="matrix(1,0,0,1,700,508) translate(114.08 49.5)"/><use xlink:href="#ab" transform="matrix(1,0,0,1,700,508) translate(155.98000000000002 49.5)"/></g><path d="M700 693c0-2.76 2.24-5 5-5h250c2.76 0 5 2.24 5 5v58c0 2.76-2.24 5-5 5H705c-2.76 0-5-2.24-5-5z" stroke="#000" stroke-width="2" fill="#fff"/><g><use xlink:href="#ac" transform="matrix(1,0,0,1,700,688) translate(11.204999999999993 27.15)"/><use xlink:href="#V" transform="matrix(1,0,0,1,700,688) translate(92.105 27.15)"/><use xlink:href="#ad" transform="matrix(1,0,0,1,700,688) translate(154.005 27.15)"/><use xlink:href="#I" transform="matrix(1,0,0,1,700,688) translate(212.905 27.15)"/><use xlink:href="#P" transform="matrix(1,0,0,1,700,688) translate(110.53 48.75)"/></g><path d="M700 597c0-2.76 2.24-5 5-5h250c2.76 0 5 2.24 5 5v74c0 2.76-2.24 5-5 5H705c-2.76 0-5-2.24-5-5z" stroke="#000" stroke-width="2" fill="#fff"/><g><use xlink:href="#J" transform="matrix(1,0,0,1,700,592) translate(17.70499999999999 24.9)"/><use xlink:href="#M" transform="matrix(1,0,0,1,700,592) translate(105.555 24.9)"/><use xlink:href="#L" transform="matrix(1,0,0,1,700,592) translate(178.455 24.9)"/><use xlink:href="#q" transform="matrix(1,0,0,1,700,592) translate(17.154999999999994 46.5)"/><use xlink:href="#s" transform="matrix(1,0,0,1,700,592) translate(82.055 46.5)"/><use xlink:href="#K" transform="matrix(1,0,0,1,700,592) translate(102.055 46.5)"/><use xlink:href="#q" transform="matrix(1,0,0,1,700,592) translate(162.95499999999998 46.5)"/><use xlink:href="#N" transform="matrix(1,0,0,1,700,592) translate(227.85500000000002 46.5)"/><use xlink:href="#O" transform="matrix(1,0,0,1,700,592) translate(72.55499999999999 68.10000000000001)"/><use xlink:href="#P" transform="matrix(1,0,0,1,700,592) translate(148.505 68.10000000000001)"/></g><path d="M680 29c0-2.76 2.24-5 5-5h310c2.76 0 5 2.24 5 5v30c0 2.76-2.24 5-5 5H685c-2.76 0-5-2.24-5-5z" fill="#fff"/><path d="M680 44h320v20H680z" fill="#fff"/><path d="M685 780c-2.76 0-5-2.24-5-5V29c0-2.76 2.24-5 5-5h310c2.76 0 5 2.24 5 5v746c0 2.76-2.24 5-5 5zM680 64h320" stroke="#000" stroke-width="2" fill="none"/><g><use xlink:href="#ae" transform="matrix(1,0,0,1,680,24) translate(94.55 23.6)"/><use xlink:href="#af" transform="matrix(1,0,0,1,680,24) translate(155.45 23.6)"/></g><path d="M60 29c0-2.76 2.24-5 5-5h310c2.76 0 5 2.24 5 5v30c0 2.76-2.24 5-5 5H65c-2.76 0-5-2.24-5-5z" fill="#fff"/><path d="M60 44h320v20H60z" fill="#fff"/><path d="M65 780c-2.76 0-5-2.24-5-5V29c0-2.76 2.24-5 5-5h310c2.76 0 5 2.24 5 5v746c0 2.76-2.24 5-5 5zM60 64h320" stroke="#000" stroke-width="2" fill="none"/><g><use xlink:href="#ag" transform="matrix(1,0,0,1,60,24) translate(104.625 23.6)"/><use xlink:href="#ah" transform="matrix(1,0,0,1,60,24) translate(148.525 23.6)"/></g><defs><path d="M30-248c87 1 191-15 191 75 0 78-77 80-158 76V0H30v-248zm33 125c57 0 124 11 124-50 0-59-68-47-124-48v98" id="ai"/><path d="M100-194c62-1 85 37 85 99 1 63-27 99-86 99S16-35 15-95c0-66 28-99 85-99zM99-20c44 1 53-31 53-75 0-43-8-75-51-75s-53 32-53 75 10 74 51 75" id="aj"/><path d="M24 0v-261h32V0H24" id="ak"/><g id="a"><use transform="matrix(0.05,0,0,0.05,0,0)" xlink:href="#ai"/><use transform="matrix(0.05,0,0,0.05,12,0)" xlink:href="#aj"/><use transform="matrix(0.05,0,0,0.05,22,0)" xlink:href="#ak"/><use transform="matrix(0.05,0,0,0.05,25.950000000000003,0)" xlink:href="#ak"/></g><path d="M209 0H11v-25l151-195H24v-28h176v25L50-27h159V0" id="al"/><path d="M194 0L95-120 63-95V0H30v-248h33v124l119-124h40L117-140 236 0h-42" id="am"/><g id="b"><use transform="matrix(0.05,0,0,0.05,0,0)" xlink:href="#al"/><use transform="matrix(0.05,0,0,0.05,10.950000000000001,0)" xlink:href="#am"/></g><path d="M101-234c-31-9-42 10-38 44h38v23H63V0H32v-167H5v-23h27c-7-52 17-82 69-68v24" id="an"/><path d="M114-163C36-179 61-72 57 0H25l-1-190h30c1 12-1 29 2 39 6-27 23-49 58-41v29" id="ao"/><g id="c"><use transform="matrix(0.05,0,0,0.05,0,0)" xlink:href="#an"/><use transform="matrix(0.05,0,0,0.05,5,0)" xlink:href="#aj"/><use transform="matrix(0.05,0,0,0.05,15,0)" xlink:href="#ao"/></g><path d="M210-169c-67 3-38 105-44 169h-31v-121c0-29-5-50-35-48C34-165 62-65 56 0H25l-1-190h30c1 10-1 24 2 32 10-44 99-50 107 0 11-21 27-35 58-36 85-2 47 119 55 194h-31v-121c0-29-5-49-35-48" id="ap"/><path d="M100-194c63 0 86 42 84 106H49c0 40 14 67 53 68 26 1 43-12 49-29l28 8c-11 28-37 45-77 45C44 4 14-33 15-96c1-61 26-98 85-98zm52 81c6-60-76-77-97-28-3 7-6 17-6 28h103" id="aq"/><path d="M135-143c-3-34-86-38-87 0 15 53 115 12 119 90S17 21 10-45l28-5c4 36 97 45 98 0-10-56-113-15-118-90-4-57 82-63 122-42 12 7 21 19 24 35" id="ar"/><g id="d"><use transform="matrix(0.05,0,0,0.05,0,0)" xlink:href="#ap"/><use transform="matrix(0.05,0,0,0.05,14.950000000000001,0)" xlink:href="#aq"/><use transform="matrix(0.05,0,0,0.05,24.950000000000003,0)" xlink:href="#ar"/><use transform="matrix(0.05,0,0,0.05,33.95,0)" xlink:href="#aj"/><use transform="matrix(0.05,0,0,0.05,43.95,0)" xlink:href="#ar"/></g><path d="M141-36C126-15 110 5 73 4 37 3 15-17 15-53c-1-64 63-63 125-63 3-35-9-54-41-54-24 1-41 7-42 31l-33-3c5-37 33-52 76-52 45 0 72 20 72 64v82c-1 20 7 32 28 27v20c-31 9-61-2-59-35zM48-53c0 20 12 33 32 33 41-3 63-29 60-74-43 2-92-5-92 41" id="as"/><path d="M59-47c-2 24 18 29 38 22v24C64 9 27 4 27-40v-127H5v-23h24l9-43h21v43h35v23H59v120" id="at"/><g id="e"><use transform="matrix(0.05,0,0,0.05,0,0)" xlink:href="#ap"/><use transform="matrix(0.05,0,0,0.05,14.950000000000001,0)" xlink:href="#as"/><use transform="matrix(0.05,0,0,0.05,24.950000000000003,0)" xlink:href="#ar"/><use transform="matrix(0.05,0,0,0.05,33.95,0)" xlink:href="#at"/><use transform="matrix(0.05,0,0,0.05,38.95,0)" xlink:href="#aq"/><use transform="matrix(0.05,0,0,0.05,48.95,0)" xlink:href="#ao"/></g><path d="M30-248c118-7 216 8 213 122C240-48 200 0 122 0H30v-248zM63-27c89 8 146-16 146-99s-60-101-146-95v194" id="au"/><path d="M206 0h-36l-40-164L89 0H53L-1-190h32L70-26l43-164h34l41 164 42-164h31" id="av"/><path d="M117-194c89-4 53 116 60 194h-32v-121c0-31-8-49-39-48C34-167 62-67 57 0H25l-1-190h30c1 10-1 24 2 32 11-22 29-35 61-36" id="aw"/><path d="M85-194c31 0 48 13 60 33l-1-100h32l1 261h-30c-2-10 0-23-3-31C134-8 116 4 85 4 32 4 16-35 15-94c0-66 23-100 70-100zm9 24c-40 0-46 34-46 75 0 40 6 74 45 74 42 0 51-32 51-76 0-42-9-74-50-73" id="ax"/><g id="f"><use transform="matrix(0.05,0,0,0.05,0,0)" xlink:href="#au"/><use transform="matrix(0.05,0,0,0.05,12.950000000000001,0)" xlink:href="#aj"/><use transform="matrix(0.05,0,0,0.05,22.950000000000003,0)" xlink:href="#av"/><use transform="matrix(0.05,0,0,0.05,35.900000000000006,0)" xlink:href="#aw"/><use transform="matrix(0.05,0,0,0.05,45.900000000000006,0)" xlink:href="#ak"/><use transform="matrix(0.05,0,0,0.05,49.85000000000001,0)" xlink:href="#aj"/><use transform="matrix(0.05,0,0,0.05,59.85,0)" xlink:href="#as"/><use transform="matrix(0.05,0,0,0.05,69.85000000000001,0)" xlink:href="#ax"/><use transform="matrix(0.05,0,0,0.05,79.85000000000001,0)" xlink:href="#ar"/></g><path d="M0 4l72-265h28L28 4H0" id="ay"/><path d="M33 0v-38h34V0H33" id="az"/><path d="M24-231v-30h32v30H24zM-9 49c24 4 33-6 33-30v-209h32V24c2 40-23 58-65 49V49" id="aA"/><g id="g"><use transform="matrix(0.05,0,0,0.05,0,0)" xlink:href="#ap"/><use transform="matrix(0.05,0,0,0.05,14.950000000000001,0)" xlink:href="#as"/><use transform="matrix(0.05,0,0,0.05,24.950000000000003,0)" xlink:href="#ar"/><use transform="matrix(0.05,0,0,0.05,33.95,0)" xlink:href="#at"/><use transform="matrix(0.05,0,0,0.05,38.95,0)" xlink:href="#aq"/><use transform="matrix(0.05,0,0,0.05,48.95,0)" xlink:href="#ao"/><use transform="matrix(0.05,0,0,0.05,54.900000000000006,0)" xlink:href="#ay"/><use transform="matrix(0.05,0,0,0.05,59.900000000000006,0)" xlink:href="#ar"/><use transform="matrix(0.05,0,0,0.05,68.9,0)" xlink:href="#at"/><use transform="matrix(0.05,0,0,0.05,73.9,0)" xlink:href="#as"/><use transform="matrix(0.05,0,0,0.05,83.9,0)" xlink:href="#at"/><use transform="matrix(0.05,0,0,0.05,88.9,0)" xlink:href="#aq"/><use transform="matrix(0.05,0,0,0.05,98.9,0)" xlink:href="#az"/><use transform="matrix(0.05,0,0,0.05,103.9,0)" xlink:href="#aA"/><use transform="matrix(0.05,0,0,0.05,107.85000000000001,0)" xlink:href="#ar"/><use transform="matrix(0.05,0,0,0.05,116.85000000000001,0)" xlink:href="#aj"/><use transform="matrix(0.05,0,0,0.05,126.85000000000001,0)" xlink:href="#aw"/></g><g id="h"><use transform="matrix(0.05,0,0,0.05,0,0)" xlink:href="#ax"/><use transform="matrix(0.05,0,0,0.05,10,0)" xlink:href="#aw"/><use transform="matrix(0.05,0,0,0.05,20,0)" xlink:href="#ar"/></g><path d="M96-169c-40 0-48 33-48 73s9 75 48 75c24 0 41-14 43-38l32 2c-6 37-31 61-74 61-59 0-76-41-82-99-10-93 101-131 147-64 4 7 5 14 7 22l-32 3c-4-21-16-35-41-35" id="aB"/><g id="i"><use transform="matrix(0.05,0,0,0.05,0,0)" xlink:href="#ao"/><use transform="matrix(0.05,0,0,0.05,5.95,0)" xlink:href="#aq"/><use transform="matrix(0.05,0,0,0.05,15.949999999999998,0)" xlink:href="#aB"/><use transform="matrix(0.05,0,0,0.05,24.95,0)" xlink:href="#aj"/><use transform="matrix(0.05,0,0,0.05,34.95,0)" xlink:href="#ao"/><use transform="matrix(0.05,0,0,0.05,40.900000000000006,0)" xlink:href="#ax"/></g><path d="M84 4C-5 8 30-112 23-190h32v120c0 31 7 50 39 49 72-2 45-101 50-169h31l1 190h-30c-1-10 1-25-2-33-11 22-28 36-60 37" id="aC"/><g id="j"><use transform="matrix(0.05,0,0,0.05,0,0)" xlink:href="#ar"/><use transform="matrix(0.05,0,0,0.05,9,0)" xlink:href="#at"/><use transform="matrix(0.05,0,0,0.05,14,0)" xlink:href="#ao"/><use transform="matrix(0.05,0,0,0.05,19.95,0)" xlink:href="#aC"/><use transform="matrix(0.05,0,0,0.05,29.950000000000003,0)" xlink:href="#aB"/><use transform="matrix(0.05,0,0,0.05,38.95,0)" xlink:href="#at"/></g><path d="M24-231v-30h32v30H24zM24 0v-190h32V0H24" id="aD"/><path d="M177-190C167-65 218 103 67 71c-23-6-38-20-44-43l32-5c15 47 100 32 89-28v-30C133-14 115 1 83 1 29 1 15-40 15-95c0-56 16-97 71-98 29-1 48 16 59 35 1-10 0-23 2-32h30zM94-22c36 0 50-32 50-73 0-42-14-75-50-75-39 0-46 34-46 75s6 73 46 73" id="aE"/><g id="k"><use transform="matrix(0.05,0,0,0.05,0,0)" xlink:href="#aB"/><use transform="matrix(0.05,0,0,0.05,9,0)" xlink:href="#aj"/><use transform="matrix(0.05,0,0,0.05,19,0)" xlink:href="#aw"/><use transform="matrix(0.05,0,0,0.05,29,0)" xlink:href="#at"/><use transform="matrix(0.05,0,0,0.05,34,0)" xlink:href="#as"/><use transform="matrix(0.05,0,0,0.05,44,0)" xlink:href="#aD"/><use transform="matrix(0.05,0,0,0.05,47.95,0)" xlink:href="#aw"/><use transform="matrix(0.05,0,0,0.05,57.95,0)" xlink:href="#aD"/><use transform="matrix(0.05,0,0,0.05,61.900000000000006,0)" xlink:href="#aw"/><use transform="matrix(0.05,0,0,0.05,71.9,0)" xlink:href="#aE"/></g><path d="M115-194c55 1 70 41 70 98S169 2 115 4C84 4 66-9 55-30l1 105H24l-1-265h31l2 30c10-21 28-34 59-34zm-8 174c40 0 45-34 45-75s-6-73-45-74c-42 0-51 32-51 76 0 43 10 73 51 73" id="aF"/><g id="l"><use transform="matrix(0.05,0,0,0.05,0,0)" xlink:href="#aF"/><use transform="matrix(0.05,0,0,0.05,10,0)" xlink:href="#as"/><use transform="matrix(0.05,0,0,0.05,20,0)" xlink:href="#ao"/><use transform="matrix(0.05,0,0,0.05,25.950000000000003,0)" xlink:href="#ar"/><use transform="matrix(0.05,0,0,0.05,34.95,0)" xlink:href="#aq"/><use transform="matrix(0.05,0,0,0.05,44.95,0)" xlink:href="#ax"/></g><g id="m"><use transform="matrix(0.05,0,0,0.05,0,0)" xlink:href="#ar"/><use transform="matrix(0.05,0,0,0.05,9,0)" xlink:href="#at"/><use transform="matrix(0.05,0,0,0.05,14,0)" xlink:href="#as"/><use transform="matrix(0.05,0,0,0.05,24,0)" xlink:href="#at"/><use transform="matrix(0.05,0,0,0.05,29,0)" xlink:href="#aq"/><use transform="matrix(0.05,0,0,0.05,39,0)" xlink:href="#az"/><use transform="matrix(0.05,0,0,0.05,44,0)" xlink:href="#aA"/><use transform="matrix(0.05,0,0,0.05,47.95,0)" xlink:href="#ar"/><use transform="matrix(0.05,0,0,0.05,56.95,0)" xlink:href="#aj"/><use transform="matrix(0.05,0,0,0.05,66.95,0)" xlink:href="#aw"/></g><g id="n"><use transform="matrix(0.05,0,0,0.05,0,0)" xlink:href="#as"/><use transform="matrix(0.05,0,0,0.05,10,0)" xlink:href="#aw"/><use transform="matrix(0.05,0,0,0.05,20,0)" xlink:href="#ax"/></g><g id="o"><use transform="matrix(0.05,0,0,0.05,0,0)" xlink:href="#aE"/><use transform="matrix(0.05,0,0,0.05,10,0)" xlink:href="#aq"/><use transform="matrix(0.05,0,0,0.05,20,0)" xlink:href="#aw"/><use transform="matrix(0.05,0,0,0.05,30,0)" xlink:href="#aq"/><use transform="matrix(0.05,0,0,0.05,40,0)" xlink:href="#ao"/><use transform="matrix(0.05,0,0,0.05,45.95,0)" xlink:href="#as"/><use transform="matrix(0.05,0,0,0.05,55.95,0)" xlink:href="#at"/><use transform="matrix(0.05,0,0,0.05,60.95,0)" xlink:href="#aq"/><use transform="matrix(0.05,0,0,0.05,70.95,0)" xlink:href="#ax"/></g><g id="p"><use transform="matrix(0.05,0,0,0.05,0,0)" xlink:href="#ax"/><use transform="matrix(0.05,0,0,0.05,10,0)" xlink:href="#aw"/><use transform="matrix(0.05,0,0,0.05,20,0)" xlink:href="#ar"/></g><g id="q"><use transform="matrix(0.05,0,0,0.05,0,0)" xlink:href="#ao"/><use transform="matrix(0.05,0,0,0.05,5.95,0)" xlink:href="#aq"/><use transform="matrix(0.05,0,0,0.05,15.949999999999998,0)" xlink:href="#aB"/><use transform="matrix(0.05,0,0,0.05,24.95,0)" xlink:href="#aj"/><use transform="matrix(0.05,0,0,0.05,34.95,0)" xlink:href="#ao"/><use transform="matrix(0.05,0,0,0.05,40.900000000000006,0)" xlink:href="#ax"/><use transform="matrix(0.05,0,0,0.05,50.900000000000006,0)" xlink:href="#ar"/></g><g id="r"><use transform="matrix(0.05,0,0,0.05,0,0)" xlink:href="#aF"/><use transform="matrix(0.05,0,0,0.05,10,0)" xlink:href="#as"/><use transform="matrix(0.05,0,0,0.05,20,0)" xlink:href="#ar"/><use transform="matrix(0.05,0,0,0.05,29,0)" xlink:href="#ar"/><use transform="matrix(0.05,0,0,0.05,38,0)" xlink:href="#aq"/><use transform="matrix(0.05,0,0,0.05,48,0)" xlink:href="#ax"/></g><g id="s"><use transform="matrix(0.05,0,0,0.05,0,0)" xlink:href="#at"/><use transform="matrix(0.05,0,0,0.05,5,0)" xlink:href="#aj"/></g><path d="M106-169C34-169 62-67 57 0H25v-261h32l-1 103c12-21 28-36 61-36 89 0 53 116 60 194h-32v-121c2-32-8-49-39-48" id="aG"/><g id="t"><use transform="matrix(0.05,0,0,0.05,0,0)" xlink:href="#aq"/><use transform="matrix(0.05,0,0,0.05,10,0)" xlink:href="#as"/><use transform="matrix(0.05,0,0,0.05,20,0)" xlink:href="#aB"/><use transform="matrix(0.05,0,0,0.05,29,0)" xlink:href="#aG"/></g><path d="M115-194c53 0 69 39 70 98 0 66-23 100-70 100C84 3 66-7 56-30L54 0H23l1-261h32v101c10-23 28-34 59-34zm-8 174c40 0 45-34 45-75 0-40-5-75-45-74-42 0-51 32-51 76 0 43 10 73 51 73" id="aH"/><path d="M143 0L79-87 56-68V0H24v-261h32v163l83-92h37l-77 82L181 0h-38" id="aI"/><g id="u"><use transform="matrix(0.05,0,0,0.05,0,0)" xlink:href="#aH"/><use transform="matrix(0.05,0,0,0.05,10,0)" xlink:href="#as"/><use transform="matrix(0.05,0,0,0.05,20,0)" xlink:href="#aB"/><use transform="matrix(0.05,0,0,0.05,29,0)" xlink:href="#aI"/><use transform="matrix(0.05,0,0,0.05,38,0)" xlink:href="#aq"/><use transform="matrix(0.05,0,0,0.05,48,0)" xlink:href="#aw"/><use transform="matrix(0.05,0,0,0.05,58,0)" xlink:href="#ax"/></g><path d="M143 4C61 4 22-44 18-125c-5-107 100-154 193-111 17 8 29 25 37 43l-32 9c-13-25-37-40-76-40-61 0-88 39-88 99 0 61 29 100 91 101 35 0 62-11 79-27v-45h-74v-28h105v86C228-13 192 4 143 4" id="aJ"/><g id="v"><use transform="matrix(0.05,0,0,0.05,0,0)" xlink:href="#aJ"/><use transform="matrix(0.05,0,0,0.05,14,0)" xlink:href="#aq"/><use transform="matrix(0.05,0,0,0.05,24,0)" xlink:href="#aw"/><use transform="matrix(0.05,0,0,0.05,34,0)" xlink:href="#aq"/><use transform="matrix(0.05,0,0,0.05,44,0)" xlink:href="#ao"/><use transform="matrix(0.05,0,0,0.05,49.95,0)" xlink:href="#as"/><use transform="matrix(0.05,0,0,0.05,59.95,0)" xlink:href="#at"/><use transform="matrix(0.05,0,0,0.05,64.95,0)" xlink:href="#aq"/><use transform="matrix(0.05,0,0,0.05,74.95,0)" xlink:href="#ar"/></g><g id="w"><use transform="matrix(0.05,0,0,0.05,0,0)" xlink:href="#ar"/><use transform="matrix(0.05,0,0,0.05,9,0)" xlink:href="#at"/><use transform="matrix(0.05,0,0,0.05,14,0)" xlink:href="#ao"/><use transform="matrix(0.05,0,0,0.05,19.95,0)" xlink:href="#aC"/><use transform="matrix(0.05,0,0,0.05,29.950000000000003,0)" xlink:href="#aB"/><use transform="matrix(0.05,0,0,0.05,38.95,0)" xlink:href="#at"/></g><g id="x"><use transform="matrix(0.05,0,0,0.05,0,0)" xlink:href="#ai"/><use transform="matrix(0.05,0,0,0.05,12,0)" xlink:href="#as"/><use transform="matrix(0.05,0,0,0.05,22,0)" xlink:href="#ao"/><use transform="matrix(0.05,0,0,0.05,27.950000000000003,0)" xlink:href="#ar"/><use transform="matrix(0.05,0,0,0.05,36.95,0)" xlink:href="#aq"/><use transform="matrix(0.05,0,0,0.05,46.95,0)" xlink:href="#ar"/></g><g id="y"><use transform="matrix(0.05,0,0,0.05,0,0)" xlink:href="#ar"/><use transform="matrix(0.05,0,0,0.05,9,0)" xlink:href="#at"/><use transform="matrix(0.05,0,0,0.05,14,0)" xlink:href="#as"/><use transform="matrix(0.05,0,0,0.05,24,0)" xlink:href="#at"/><use transform="matrix(0.05,0,0,0.05,29,0)" xlink:href="#aq"/><use transform="matrix(0.05,0,0,0.05,39,0)" xlink:href="#az"/><use transform="matrix(0.05,0,0,0.05,44,0)" xlink:href="#aA"/><use transform="matrix(0.05,0,0,0.05,47.95,0)" xlink:href="#ar"/><use transform="matrix(0.05,0,0,0.05,56.95,0)" xlink:href="#aj"/><use transform="matrix(0.05,0,0,0.05,66.95,0)" xlink:href="#aw"/></g><path d="M233-177c-1 41-23 64-60 70L243 0h-38l-65-103H63V0H30v-248c88 3 205-21 203 71zM63-129c60-2 137 13 137-47 0-61-80-42-137-45v92" id="aK"/><g id="z"><use transform="matrix(0.05,0,0,0.05,0,0)" xlink:href="#aK"/><use transform="matrix(0.05,0,0,0.05,12.950000000000001,0)" xlink:href="#aq"/><use transform="matrix(0.05,0,0,0.05,22.950000000000003,0)" xlink:href="#an"/><use transform="matrix(0.05,0,0,0.05,27.950000000000003,0)" xlink:href="#ao"/><use transform="matrix(0.05,0,0,0.05,33.900000000000006,0)" xlink:href="#aq"/><use transform="matrix(0.05,0,0,0.05,43.900000000000006,0)" xlink:href="#ar"/><use transform="matrix(0.05,0,0,0.05,52.900000000000006,0)" xlink:href="#aG"/></g><path d="M33 0v-248h34V0H33" id="aL"/><path d="M9 0v-24l116-142H16v-24h144v24L44-24h123V0H9" id="aM"/><g id="A"><use transform="matrix(0.05,0,0,0.05,0,0)" xlink:href="#aL"/><use transform="matrix(0.05,0,0,0.05,5,0)" xlink:href="#aw"/><use transform="matrix(0.05,0,0,0.05,15,0)" xlink:href="#aD"/><use transform="matrix(0.05,0,0,0.05,18.95,0)" xlink:href="#at"/><use transform="matrix(0.05,0,0,0.05,23.95,0)" xlink:href="#aD"/><use transform="matrix(0.05,0,0,0.05,27.899999999999995,0)" xlink:href="#as"/><use transform="matrix(0.05,0,0,0.05,37.9,0)" xlink:href="#ak"/><use transform="matrix(0.05,0,0,0.05,41.85,0)" xlink:href="#aD"/><use transform="matrix(0.05,0,0,0.05,45.800000000000004,0)" xlink:href="#aM"/><use transform="matrix(0.05,0,0,0.05,54.800000000000004,0)" xlink:href="#aq"/></g><g id="B"><use transform="matrix(0.05,0,0,0.05,0,0)" xlink:href="#aB"/><use transform="matrix(0.05,0,0,0.05,9,0)" xlink:href="#aj"/><use transform="matrix(0.05,0,0,0.05,19,0)" xlink:href="#aw"/><use transform="matrix(0.05,0,0,0.05,29,0)" xlink:href="#aw"/><use transform="matrix(0.05,0,0,0.05,39,0)" xlink:href="#aq"/><use transform="matrix(0.05,0,0,0.05,49,0)" xlink:href="#aB"/><use transform="matrix(0.05,0,0,0.05,58,0)" xlink:href="#at"/><use transform="matrix(0.05,0,0,0.05,63,0)" xlink:href="#aD"/><use transform="matrix(0.05,0,0,0.05,66.95,0)" xlink:href="#aj"/><use transform="matrix(0.05,0,0,0.05,76.95,0)" xlink:href="#aw"/></g><g id="C"><use transform="matrix(0.05,0,0,0.05,0,0)" xlink:href="#as"/><use transform="matrix(0.05,0,0,0.05,10,0)" xlink:href="#ak"/><use transform="matrix(0.05,0,0,0.05,13.949999999999998,0)" xlink:href="#ak"/></g><g id="D"><use transform="matrix(0.05,0,0,0.05,0,0)" xlink:href="#aB"/><use transform="matrix(0.05,0,0,0.05,9,0)" xlink:href="#aj"/><use transform="matrix(0.05,0,0,0.05,19,0)" xlink:href="#aw"/><use transform="matrix(0.05,0,0,0.05,29,0)" xlink:href="#ar"/><use transform="matrix(0.05,0,0,0.05,38,0)" xlink:href="#aC"/><use transform="matrix(0.05,0,0,0.05,48,0)" xlink:href="#ak"/></g><g id="E"><use transform="matrix(0.05,0,0,0.05,0,0)" xlink:href="#as"/><use transform="matrix(0.05,0,0,0.05,10,0)" xlink:href="#aE"/><use transform="matrix(0.05,0,0,0.05,20,0)" xlink:href="#aq"/><use transform="matrix(0.05,0,0,0.05,30,0)" xlink:href="#aw"/><use transform="matrix(0.05,0,0,0.05,40,0)" xlink:href="#at"/><use transform="matrix(0.05,0,0,0.05,45,0)" xlink:href="#ar"/></g><path d="M127-220V0H93v-220H8v-28h204v28h-85" id="aN"/><g id="F"><use transform="matrix(0.05,0,0,0.05,0,0)" xlink:href="#aN"/><use transform="matrix(0.05,0,0,0.05,8.950000000000001,0)" xlink:href="#as"/><use transform="matrix(0.05,0,0,0.05,18.950000000000003,0)" xlink:href="#ar"/><use transform="matrix(0.05,0,0,0.05,27.950000000000003,0)" xlink:href="#aI"/></g><g id="G"><use transform="matrix(0.05,0,0,0.05,0,0)" xlink:href="#as"/><use transform="matrix(0.05,0,0,0.05,10,0)" xlink:href="#ar"/><use transform="matrix(0.05,0,0,0.05,19,0)" xlink:href="#ar"/><use transform="matrix(0.05,0,0,0.05,28,0)" xlink:href="#aj"/><use transform="matrix(0.05,0,0,0.05,38,0)" xlink:href="#aB"/><use transform="matrix(0.05,0,0,0.05,47,0)" xlink:href="#aD"/><use transform="matrix(0.05,0,0,0.05,50.95,0)" xlink:href="#as"/><use transform="matrix(0.05,0,0,0.05,60.95,0)" xlink:href="#at"/><use transform="matrix(0.05,0,0,0.05,65.95,0)" xlink:href="#aq"/><use transform="matrix(0.05,0,0,0.05,75.95,0)" xlink:href="#ax"/></g><g id="H"><use transform="matrix(0.05,0,0,0.05,0,0)" xlink:href="#aG"/><use transform="matrix(0.05,0,0,0.05,10,0)" xlink:href="#aq"/><use transform="matrix(0.05,0,0,0.05,20,0)" xlink:href="#as"/><use transform="matrix(0.05,0,0,0.05,30,0)" xlink:href="#ak"/><use transform="matrix(0.05,0,0,0.05,33.95,0)" xlink:href="#at"/><use transform="matrix(0.05,0,0,0.05,38.95,0)" xlink:href="#aG"/><use transform="matrix(0.05,0,0,0.05,48.95,0)" xlink:href="#aB"/><use transform="matrix(0.05,0,0,0.05,57.95,0)" xlink:href="#aG"/><use transform="matrix(0.05,0,0,0.05,67.95,0)" xlink:href="#aq"/><use transform="matrix(0.05,0,0,0.05,77.95,0)" xlink:href="#aB"/><use transform="matrix(0.05,0,0,0.05,86.95,0)" xlink:href="#aI"/><use transform="matrix(0.05,0,0,0.05,95.95,0)" xlink:href="#ar"/></g><g id="I"><use transform="matrix(0.05,0,0,0.05,0,0)" xlink:href="#an"/><use transform="matrix(0.05,0,0,0.05,5,0)" xlink:href="#ao"/><use transform="matrix(0.05,0,0,0.05,10.95,0)" xlink:href="#aj"/><use transform="matrix(0.05,0,0,0.05,20.95,0)" xlink:href="#ap"/></g><path d="M212-179c-10-28-35-45-73-45-59 0-87 40-87 99 0 60 29 101 89 101 43 0 62-24 78-52l27 14C228-24 195 4 139 4 59 4 22-46 18-125c-6-104 99-153 187-111 19 9 31 26 39 46" id="aO"/><g id="J"><use transform="matrix(0.05,0,0,0.05,0,0)" xlink:href="#aO"/><use transform="matrix(0.05,0,0,0.05,12.950000000000001,0)" xlink:href="#aj"/><use transform="matrix(0.05,0,0,0.05,22.950000000000003,0)" xlink:href="#ap"/><use transform="matrix(0.05,0,0,0.05,37.900000000000006,0)" xlink:href="#aF"/><use transform="matrix(0.05,0,0,0.05,47.900000000000006,0)" xlink:href="#as"/><use transform="matrix(0.05,0,0,0.05,57.900000000000006,0)" xlink:href="#ao"/><use transform="matrix(0.05,0,0,0.05,63.85,0)" xlink:href="#aq"/><use transform="matrix(0.05,0,0,0.05,73.85000000000001,0)" xlink:href="#ar"/></g><g id="K"><use transform="matrix(0.05,0,0,0.05,0,0)" xlink:href="#aB"/><use transform="matrix(0.05,0,0,0.05,9,0)" xlink:href="#aC"/><use transform="matrix(0.05,0,0,0.05,19,0)" xlink:href="#ao"/><use transform="matrix(0.05,0,0,0.05,24.95,0)" xlink:href="#ao"/><use transform="matrix(0.05,0,0,0.05,30.899999999999995,0)" xlink:href="#aq"/><use transform="matrix(0.05,0,0,0.05,40.9,0)" xlink:href="#aw"/><use transform="matrix(0.05,0,0,0.05,50.9,0)" xlink:href="#at"/></g><g id="L"><use transform="matrix(0.05,0,0,0.05,0,0)" xlink:href="#aD"/><use transform="matrix(0.05,0,0,0.05,3.95,0)" xlink:href="#at"/><use transform="matrix(0.05,0,0,0.05,8.95,0)" xlink:href="#aq"/><use transform="matrix(0.05,0,0,0.05,18.95,0)" xlink:href="#ao"/><use transform="matrix(0.05,0,0,0.05,24.9,0)" xlink:href="#as"/><use transform="matrix(0.05,0,0,0.05,34.9,0)" xlink:href="#at"/><use transform="matrix(0.05,0,0,0.05,39.9,0)" xlink:href="#aD"/><use transform="matrix(0.05,0,0,0.05,43.85,0)" xlink:href="#aj"/><use transform="matrix(0.05,0,0,0.05,53.85,0)" xlink:href="#aw"/></g><path d="M108 0H70L1-190h34L89-25l56-165h34" id="aP"/><g id="M"><use transform="matrix(0.05,0,0,0.05,0,0)" xlink:href="#aF"/><use transform="matrix(0.05,0,0,0.05,10,0)" xlink:href="#ao"/><use transform="matrix(0.05,0,0,0.05,15.949999999999998,0)" xlink:href="#aq"/><use transform="matrix(0.05,0,0,0.05,25.950000000000003,0)" xlink:href="#aP"/><use transform="matrix(0.05,0,0,0.05,34.95,0)" xlink:href="#aD"/><use transform="matrix(0.05,0,0,0.05,38.900000000000006,0)" xlink:href="#aj"/><use transform="matrix(0.05,0,0,0.05,48.900000000000006,0)" xlink:href="#aC"/><use transform="matrix(0.05,0,0,0.05,58.900000000000006,0)" xlink:href="#ar"/></g><g id="N"><use transform="matrix(0.05,0,0,0.05,0,0)" xlink:href="#at"/><use transform="matrix(0.05,0,0,0.05,5,0)" xlink:href="#aj"/></g><g id="O"><use transform="matrix(0.05,0,0,0.05,0,0)" xlink:href="#aE"/><use transform="matrix(0.05,0,0,0.05,10,0)" xlink:href="#aq"/><use transform="matrix(0.05,0,0,0.05,20,0)" xlink:href="#aw"/><use transform="matrix(0.05,0,0,0.05,30,0)" xlink:href="#aq"/><use transform="matrix(0.05,0,0,0.05,40,0)" xlink:href="#ao"/><use transform="matrix(0.05,0,0,0.05,45.95,0)" xlink:href="#as"/><use transform="matrix(0.05,0,0,0.05,55.95,0)" xlink:href="#at"/><use transform="matrix(0.05,0,0,0.05,60.95,0)" xlink:href="#aq"/></g><g id="P"><use transform="matrix(0.05,0,0,0.05,0,0)" xlink:href="#ax"/><use transform="matrix(0.05,0,0,0.05,10,0)" xlink:href="#aq"/><use transform="matrix(0.05,0,0,0.05,20,0)" xlink:href="#ak"/><use transform="matrix(0.05,0,0,0.05,23.95,0)" xlink:href="#at"/><use transform="matrix(0.05,0,0,0.05,28.950000000000003,0)" xlink:href="#as"/></g><path d="M63-220v92h138v28H63V0H30v-248h175v28H63" id="aQ"/><g id="Q"><use transform="matrix(0.05,0,0,0.05,0,0)" xlink:href="#aQ"/><use transform="matrix(0.05,0,0,0.05,10.950000000000001,0)" xlink:href="#ao"/><use transform="matrix(0.05,0,0,0.05,16.900000000000002,0)" xlink:href="#as"/><use transform="matrix(0.05,0,0,0.05,26.900000000000002,0)" xlink:href="#ap"/><use transform="matrix(0.05,0,0,0.05,41.85,0)" xlink:href="#aq"/><use transform="matrix(0.05,0,0,0.05,51.85,0)" xlink:href="#av"/><use transform="matrix(0.05,0,0,0.05,64.8,0)" xlink:href="#aj"/><use transform="matrix(0.05,0,0,0.05,74.8,0)" xlink:href="#ao"/><use transform="matrix(0.05,0,0,0.05,80.75,0)" xlink:href="#aI"/></g><g id="R"><use transform="matrix(0.05,0,0,0.05,0,0)" xlink:href="#ao"/><use transform="matrix(0.05,0,0,0.05,5.95,0)" xlink:href="#aq"/><use transform="matrix(0.05,0,0,0.05,15.949999999999998,0)" xlink:href="#aB"/><use transform="matrix(0.05,0,0,0.05,24.95,0)" xlink:href="#aj"/><use transform="matrix(0.05,0,0,0.05,34.95,0)" xlink:href="#ao"/><use transform="matrix(0.05,0,0,0.05,40.900000000000006,0)" xlink:href="#ax"/><use transform="matrix(0.05,0,0,0.05,50.900000000000006,0)" xlink:href="#ar"/></g><g id="S"><use transform="matrix(0.05,0,0,0.05,0,0)" xlink:href="#an"/><use transform="matrix(0.05,0,0,0.05,5,0)" xlink:href="#ao"/><use transform="matrix(0.05,0,0,0.05,10.95,0)" xlink:href="#aj"/><use transform="matrix(0.05,0,0,0.05,20.95,0)" xlink:href="#ap"/></g><path d="M240 0l2-218c-23 76-54 145-80 218h-23L58-218 59 0H30v-248h44l77 211c21-75 51-140 76-211h43V0h-30" id="aR"/><g id="T"><use transform="matrix(0.05,0,0,0.05,0,0)" xlink:href="#aR"/><use transform="matrix(0.05,0,0,0.05,14.950000000000001,0)" xlink:href="#aq"/><use transform="matrix(0.05,0,0,0.05,24.950000000000003,0)" xlink:href="#ar"/><use transform="matrix(0.05,0,0,0.05,33.95,0)" xlink:href="#aj"/><use transform="matrix(0.05,0,0,0.05,43.95,0)" xlink:href="#ar"/></g><g id="U"><use transform="matrix(0.05,0,0,0.05,0,0)" xlink:href="#aO"/><use transform="matrix(0.05,0,0,0.05,12.950000000000001,0)" xlink:href="#ao"/><use transform="matrix(0.05,0,0,0.05,18.900000000000002,0)" xlink:href="#aq"/><use transform="matrix(0.05,0,0,0.05,28.900000000000002,0)" xlink:href="#as"/><use transform="matrix(0.05,0,0,0.05,38.900000000000006,0)" xlink:href="#at"/><use transform="matrix(0.05,0,0,0.05,43.900000000000006,0)" xlink:href="#aq"/><use transform="matrix(0.05,0,0,0.05,53.900000000000006,0)" xlink:href="#ar"/></g><g id="V"><use transform="matrix(0.05,0,0,0.05,0,0)" xlink:href="#ar"/><use transform="matrix(0.05,0,0,0.05,9,0)" xlink:href="#aq"/><use transform="matrix(0.05,0,0,0.05,19,0)" xlink:href="#ao"/><use transform="matrix(0.05,0,0,0.05,24.95,0)" xlink:href="#aP"/><use transform="matrix(0.05,0,0,0.05,33.95,0)" xlink:href="#aD"/><use transform="matrix(0.05,0,0,0.05,37.900000000000006,0)" xlink:href="#aB"/><use transform="matrix(0.05,0,0,0.05,46.900000000000006,0)" xlink:href="#aq"/></g><path d="M179-190L93 31C79 59 56 82 12 73V49c39 6 53-20 64-50L1-190h34L92-34l54-156h33" id="aS"/><g id="W"><use transform="matrix(0.05,0,0,0.05,0,0)" xlink:href="#aq"/><use transform="matrix(0.05,0,0,0.05,10,0)" xlink:href="#aw"/><use transform="matrix(0.05,0,0,0.05,20,0)" xlink:href="#at"/><use transform="matrix(0.05,0,0,0.05,25,0)" xlink:href="#ao"/><use transform="matrix(0.05,0,0,0.05,30.950000000000003,0)" xlink:href="#aS"/></g><g id="X"><use transform="matrix(0.05,0,0,0.05,0,0)" xlink:href="#aj"/><use transform="matrix(0.05,0,0,0.05,10,0)" xlink:href="#aw"/></g><g id="Y"><use transform="matrix(0.05,0,0,0.05,0,0)" xlink:href="#aq"/><use transform="matrix(0.05,0,0,0.05,10,0)" xlink:href="#as"/><use transform="matrix(0.05,0,0,0.05,20,0)" xlink:href="#aB"/><use transform="matrix(0.05,0,0,0.05,29,0)" xlink:href="#aG"/></g><g id="Z"><use transform="matrix(0.05,0,0,0.05,0,0)" xlink:href="#as"/><use transform="matrix(0.05,0,0,0.05,10,0)" xlink:href="#aE"/><use transform="matrix(0.05,0,0,0.05,20,0)" xlink:href="#aq"/><use transform="matrix(0.05,0,0,0.05,30,0)" xlink:href="#aw"/><use transform="matrix(0.05,0,0,0.05,40,0)" xlink:href="#at"/></g><g id="aa"><use transform="matrix(0.05,0,0,0.05,0,0)" xlink:href="#ak"/><use transform="matrix(0.05,0,0,0.05,3.95,0)" xlink:href="#aj"/><use transform="matrix(0.05,0,0,0.05,13.949999999999998,0)" xlink:href="#aB"/><use transform="matrix(0.05,0,0,0.05,22.95,0)" xlink:href="#as"/><use transform="matrix(0.05,0,0,0.05,32.95,0)" xlink:href="#ak"/></g><g id="ab"><use transform="matrix(0.05,0,0,0.05,0,0)" xlink:href="#ar"/><use transform="matrix(0.05,0,0,0.05,9,0)" xlink:href="#aq"/><use transform="matrix(0.05,0,0,0.05,19,0)" xlink:href="#ao"/><use transform="matrix(0.05,0,0,0.05,24.95,0)" xlink:href="#aP"/><use transform="matrix(0.05,0,0,0.05,33.95,0)" xlink:href="#aD"/><use transform="matrix(0.05,0,0,0.05,37.900000000000006,0)" xlink:href="#aB"/><use transform="matrix(0.05,0,0,0.05,46.900000000000006,0)" xlink:href="#aq"/><use transform="matrix(0.05,0,0,0.05,56.900000000000006,0)" xlink:href="#ar"/></g><g id="ac"><use transform="matrix(0.05,0,0,0.05,0,0)" xlink:href="#aK"/><use transform="matrix(0.05,0,0,0.05,12.950000000000001,0)" xlink:href="#aq"/><use transform="matrix(0.05,0,0,0.05,22.950000000000003,0)" xlink:href="#ap"/><use transform="matrix(0.05,0,0,0.05,37.900000000000006,0)" xlink:href="#aj"/><use transform="matrix(0.05,0,0,0.05,47.900000000000006,0)" xlink:href="#aP"/><use transform="matrix(0.05,0,0,0.05,56.900000000000006,0)" xlink:href="#aq"/><use transform="matrix(0.05,0,0,0.05,66.9,0)" xlink:href="#ar"/></g><g id="ad"><use transform="matrix(0.05,0,0,0.05,0,0)" xlink:href="#aq"/><use transform="matrix(0.05,0,0,0.05,10,0)" xlink:href="#aw"/><use transform="matrix(0.05,0,0,0.05,20,0)" xlink:href="#at"/><use transform="matrix(0.05,0,0,0.05,25,0)" xlink:href="#ao"/><use transform="matrix(0.05,0,0,0.05,30.950000000000003,0)" xlink:href="#aD"/><use transform="matrix(0.05,0,0,0.05,34.9,0)" xlink:href="#aq"/><use transform="matrix(0.05,0,0,0.05,44.9,0)" xlink:href="#ar"/></g><g id="ae"><use transform="matrix(0.05,0,0,0.05,0,0)" xlink:href="#aO"/><use transform="matrix(0.05,0,0,0.05,12.950000000000001,0)" xlink:href="#aj"/><use transform="matrix(0.05,0,0,0.05,22.950000000000003,0)" xlink:href="#aw"/><use transform="matrix(0.05,0,0,0.05,32.95,0)" xlink:href="#ar"/><use transform="matrix(0.05,0,0,0.05,41.95,0)" xlink:href="#aC"/><use transform="matrix(0.05,0,0,0.05,51.95,0)" xlink:href="#ak"/></g><path d="M160-131c35 5 61 23 61 61C221 17 115-2 30 0v-248c76 3 177-17 177 60 0 33-19 50-47 57zm-97-11c50-1 110 9 110-42 0-47-63-36-110-37v79zm0 115c55-2 124 14 124-45 0-56-70-42-124-44v89" id="aT"/><g id="af"><use transform="matrix(0.05,0,0,0.05,0,0)" xlink:href="#aT"/><use transform="matrix(0.05,0,0,0.05,12,0)" xlink:href="#as"/><use transform="matrix(0.05,0,0,0.05,22,0)" xlink:href="#aB"/><use transform="matrix(0.05,0,0,0.05,31,0)" xlink:href="#aI"/><use transform="matrix(0.05,0,0,0.05,40,0)" xlink:href="#aq"/><use transform="matrix(0.05,0,0,0.05,50,0)" xlink:href="#aw"/><use transform="matrix(0.05,0,0,0.05,60,0)" xlink:href="#ax"/></g><g id="ag"><use transform="matrix(0.05,0,0,0.05,0,0)" xlink:href="#aR"/><use transform="matrix(0.05,0,0,0.05,14.950000000000001,0)" xlink:href="#as"/><use transform="matrix(0.05,0,0,0.05,24.950000000000003,0)" xlink:href="#aD"/><use transform="matrix(0.05,0,0,0.05,28.900000000000002,0)" xlink:href="#aw"/></g><g id="ah"><use transform="matrix(0.05,0,0,0.05,0,0)" xlink:href="#aF"/><use transform="matrix(0.05,0,0,0.05,10,0)" xlink:href="#ao"/><use transform="matrix(0.05,0,0,0.05,15.949999999999998,0)" xlink:href="#aj"/><use transform="matrix(0.05,0,0,0.05,25.950000000000003,0)" xlink:href="#aE"/><use transform="matrix(0.05,0,0,0.05,35.95,0)" xlink:href="#ao"/><use transform="matrix(0.05,0,0,0.05,41.900000000000006,0)" xlink:href="#as"/><use transform="matrix(0.05,0,0,0.05,51.900000000000006,0)" xlink:href="#ap"/></g></defs></g></svg>